<?xml version="1.0" standalone="no"?>
<!DOCTYPE svg PUBLIC "-//W3C//DTD SVG 20010904//EN"
 "http://www.w3.org/TR/2001/REC-SVG-20010904/DTD/svg10.dtd">
<svg version="1.0" xmlns="http://www.w3.org/2000/svg"
 width="700.000000pt" height="700.000000pt" viewBox="0 0 700.000000 700.000000"
 preserveAspectRatio="xMidYMid meet">
<metadata>
Created by potrace 1.14, written by Peter Selinger 2001-2017
</metadata>
<g transform="translate(0.000000,700.000000) scale(0.100000,-0.100000)"
fill="#000000" stroke="none">
<path d="M3430 6553 c-8 -3 -53 -24 -100 -46 -110 -50 -433 -190 -530 -229
-41 -16 -88 -36 -105 -43 -138 -61 -702 -257 -810 -281 -5 -1 -62 -16 -125
-33 -109 -30 -460 -113 -525 -125 -53 -9 -90 -17 -107 -22 -10 -3 -30 -7 -45
-10 -16 -2 -39 -7 -53 -9 -14 -3 -38 -8 -55 -11 -16 -3 -59 -11 -95 -19 -36
-8 -88 -17 -116 -21 -27 -3 -51 -8 -54 -9 -3 -2 -25 -6 -49 -10 -110 -16 -189
-85 -207 -180 -13 -71 -20 -578 -9 -720 2 -38 7 -101 10 -140 6 -96 14 -177
31 -315 3 -25 9 -67 14 -95 5 -27 12 -72 16 -100 4 -27 8 -54 9 -60 2 -5 8
-37 14 -70 64 -323 193 -737 311 -1000 42 -94 190 -390 227 -456 101 -176 278
-440 379 -565 18 -22 54 -67 82 -102 176 -221 523 -564 746 -737 21 -16 44
-34 50 -40 6 -5 36 -29 66 -51 269 -201 518 -358 780 -489 284 -143 315 -150
441 -95 273 119 596 306 864 499 79 57 310 237 341 266 6 5 42 37 80 70 68 59
346 334 414 410 30 34 163 192 218 260 89 109 260 365 388 580 57 96 191 371
251 516 153 368 284 845 328 1199 4 30 9 63 11 73 2 10 6 46 9 80 3 34 8 78
10 97 25 223 33 578 20 845 -6 143 -16 184 -53 232 -48 64 -81 75 -382 128
-19 3 -53 10 -75 15 -22 5 -56 12 -75 15 -42 7 -249 50 -340 71 -102 23 -104
24 -125 28 -11 2 -40 9 -65 16 -25 7 -52 14 -61 15 -9 2 -86 22 -170 45 -85
23 -158 43 -164 44 -5 2 -17 6 -25 9 -8 3 -80 26 -160 51 -211 67 -602 215
-785 296 -422 189 -512 224 -570 227 -33 1 -67 0 -75 -4z m206 -509 c71 -30
147 -64 169 -74 22 -10 69 -30 105 -45 36 -15 83 -35 105 -45 148 -66 623
-238 830 -301 177 -54 560 -155 655 -173 14 -2 66 -13 115 -25 50 -11 101 -22
115 -24 14 -3 59 -12 100 -20 41 -9 88 -18 104 -21 16 -3 52 -10 80 -16 28 -5
62 -11 76 -13 21 -3 26 -11 31 -44 9 -68 -2 -513 -15 -623 -2 -14 -7 -61 -11
-104 -4 -43 -8 -86 -10 -95 -3 -19 -26 -167 -30 -196 -2 -17 -27 -149 -39
-210 -4 -18 -60 -245 -71 -285 -22 -83 -82 -261 -135 -400 -144 -379 -379
-786 -650 -1124 -61 -77 -128 -158 -148 -180 -83 -91 -333 -338 -412 -407
-135 -117 -145 -125 -279 -226 -31 -24 -60 -47 -66 -51 -41 -33 -256 -175
-357 -235 -147 -89 -375 -207 -398 -207 -18 0 -257 120 -302 151 -14 11 -29
19 -33 19 -22 0 -372 234 -515 344 -224 173 -532 460 -681 635 -30 35 -59 69
-64 75 -39 42 -204 261 -271 361 -180 267 -288 472 -439 830 -35 83 -120 340
-154 465 -55 204 -119 547 -136 735 -4 39 -8 86 -10 105 -15 134 -26 583 -17
638 3 13 13 24 26 27 11 2 136 27 276 55 140 28 262 53 270 55 8 2 49 11 90
20 312 66 1015 281 1195 365 11 5 52 21 90 36 39 15 88 34 110 44 22 9 139 59
259 110 121 52 236 102 255 111 20 10 41 18 47 19 6 0 69 -25 140 -56z"/>
<path d="M4505 4791 c-51 -25 -57 -31 -130 -116 -90 -105 -108 -125 -130 -149
-11 -13 -42 -49 -70 -81 -27 -33 -85 -100 -129 -150 -43 -49 -88 -101 -100
-115 -11 -14 -48 -57 -82 -95 -33 -39 -72 -83 -85 -99 -13 -15 -33 -38 -44
-50 -27 -31 -360 -415 -524 -605 -73 -86 -138 -158 -143 -160 -5 -2 -73 60
-151 137 -266 264 -382 374 -410 388 -40 21 -115 28 -162 15 -119 -32 -189
-178 -141 -293 15 -36 114 -136 581 -593 88 -86 177 -165 198 -176 23 -12 60
-21 91 -21 84 -2 131 27 232 145 49 56 100 116 115 132 15 17 62 71 105 120
100 117 176 205 189 219 6 6 66 76 135 156 68 80 127 147 130 150 3 3 61 70
130 150 69 80 129 150 135 156 23 26 122 140 285 329 95 110 188 218 208 240
106 119 93 271 -29 352 -55 36 -146 43 -204 14z"/>
</g>
</svg>
